<mxfile host="app.diagrams.net" modified="2023-05-08T03:55:32.430Z" agent="Mozilla/5.0 (Windows NT 10.0; Win64; x64) AppleWebKit/537.36 (KHTML, like Gecko) Chrome/112.0.0.0 Safari/537.36" etag="urUGRJZzJYXtdNo0ekhv" version="21.2.6" type="device">
  <diagram id="C5RBs43oDa-KdzZeNtuy" name="Page-1">
    <mxGraphModel dx="1035" dy="512" grid="1" gridSize="10" guides="1" tooltips="1" connect="1" arrows="1" fold="1" page="1" pageScale="1" pageWidth="827" pageHeight="1169" math="0" shadow="0">
      <root>
        <mxCell id="WIyWlLk6GJQsqaUBKTNV-0" />
        <mxCell id="WIyWlLk6GJQsqaUBKTNV-1" parent="WIyWlLk6GJQsqaUBKTNV-0" />
        <mxCell id="w1AFs5OzmK7hU-oQMfDA-3" value="" style="edgeStyle=orthogonalEdgeStyle;rounded=0;orthogonalLoop=1;jettySize=auto;html=1;" edge="1" parent="WIyWlLk6GJQsqaUBKTNV-1" source="w1AFs5OzmK7hU-oQMfDA-1" target="w1AFs5OzmK7hU-oQMfDA-2">
          <mxGeometry relative="1" as="geometry" />
        </mxCell>
        <mxCell id="w1AFs5OzmK7hU-oQMfDA-1" value="START" style="ellipse;whiteSpace=wrap;html=1;" vertex="1" parent="WIyWlLk6GJQsqaUBKTNV-1">
          <mxGeometry x="119.94" y="20" width="120" height="40" as="geometry" />
        </mxCell>
        <mxCell id="w1AFs5OzmK7hU-oQMfDA-5" value="" style="edgeStyle=orthogonalEdgeStyle;rounded=0;orthogonalLoop=1;jettySize=auto;html=1;" edge="1" parent="WIyWlLk6GJQsqaUBKTNV-1" source="w1AFs5OzmK7hU-oQMfDA-2" target="w1AFs5OzmK7hU-oQMfDA-4">
          <mxGeometry relative="1" as="geometry" />
        </mxCell>
        <mxCell id="w1AFs5OzmK7hU-oQMfDA-2" value="Read Noisy Image" style="shape=parallelogram;perimeter=parallelogramPerimeter;whiteSpace=wrap;html=1;fixedSize=1;" vertex="1" parent="WIyWlLk6GJQsqaUBKTNV-1">
          <mxGeometry x="114.94" y="90" width="130" height="40" as="geometry" />
        </mxCell>
        <mxCell id="w1AFs5OzmK7hU-oQMfDA-7" value="" style="edgeStyle=orthogonalEdgeStyle;rounded=0;orthogonalLoop=1;jettySize=auto;html=1;" edge="1" parent="WIyWlLk6GJQsqaUBKTNV-1" source="w1AFs5OzmK7hU-oQMfDA-4" target="w1AFs5OzmK7hU-oQMfDA-6">
          <mxGeometry relative="1" as="geometry" />
        </mxCell>
        <mxCell id="w1AFs5OzmK7hU-oQMfDA-4" value="Image symmetrically padded" style="whiteSpace=wrap;html=1;" vertex="1" parent="WIyWlLk6GJQsqaUBKTNV-1">
          <mxGeometry x="119.94" y="160" width="120" height="40" as="geometry" />
        </mxCell>
        <mxCell id="w1AFs5OzmK7hU-oQMfDA-9" value="" style="edgeStyle=orthogonalEdgeStyle;rounded=0;orthogonalLoop=1;jettySize=auto;html=1;" edge="1" parent="WIyWlLk6GJQsqaUBKTNV-1" source="w1AFs5OzmK7hU-oQMfDA-6" target="w1AFs5OzmK7hU-oQMfDA-8">
          <mxGeometry relative="1" as="geometry" />
        </mxCell>
        <mxCell id="w1AFs5OzmK7hU-oQMfDA-6" value="5x5 window created around image pixel" style="whiteSpace=wrap;html=1;" vertex="1" parent="WIyWlLk6GJQsqaUBKTNV-1">
          <mxGeometry x="119.94" y="230" width="120" height="40" as="geometry" />
        </mxCell>
        <mxCell id="w1AFs5OzmK7hU-oQMfDA-11" value="" style="edgeStyle=orthogonalEdgeStyle;rounded=0;orthogonalLoop=1;jettySize=auto;html=1;" edge="1" parent="WIyWlLk6GJQsqaUBKTNV-1" source="w1AFs5OzmK7hU-oQMfDA-8" target="w1AFs5OzmK7hU-oQMfDA-10">
          <mxGeometry relative="1" as="geometry" />
        </mxCell>
        <mxCell id="w1AFs5OzmK7hU-oQMfDA-8" value="Window elements sorted in a 1-D array" style="whiteSpace=wrap;html=1;" vertex="1" parent="WIyWlLk6GJQsqaUBKTNV-1">
          <mxGeometry x="119.94" y="300" width="120" height="40" as="geometry" />
        </mxCell>
        <mxCell id="w1AFs5OzmK7hU-oQMfDA-13" value="" style="edgeStyle=orthogonalEdgeStyle;rounded=0;orthogonalLoop=1;jettySize=auto;html=1;" edge="1" parent="WIyWlLk6GJQsqaUBKTNV-1" source="w1AFs5OzmK7hU-oQMfDA-10" target="w1AFs5OzmK7hU-oQMfDA-12">
          <mxGeometry relative="1" as="geometry" />
        </mxCell>
        <mxCell id="w1AFs5OzmK7hU-oQMfDA-10" value="Array is sorted" style="whiteSpace=wrap;html=1;" vertex="1" parent="WIyWlLk6GJQsqaUBKTNV-1">
          <mxGeometry x="119.94" y="370" width="120" height="40" as="geometry" />
        </mxCell>
        <mxCell id="w1AFs5OzmK7hU-oQMfDA-15" value="" style="edgeStyle=orthogonalEdgeStyle;rounded=0;orthogonalLoop=1;jettySize=auto;html=1;" edge="1" parent="WIyWlLk6GJQsqaUBKTNV-1" source="w1AFs5OzmK7hU-oQMfDA-12" target="w1AFs5OzmK7hU-oQMfDA-14">
          <mxGeometry relative="1" as="geometry" />
        </mxCell>
        <mxCell id="w1AFs5OzmK7hU-oQMfDA-12" value="Elements from front and back removed" style="whiteSpace=wrap;html=1;" vertex="1" parent="WIyWlLk6GJQsqaUBKTNV-1">
          <mxGeometry x="119.94" y="440" width="120" height="40" as="geometry" />
        </mxCell>
        <mxCell id="w1AFs5OzmK7hU-oQMfDA-17" value="" style="edgeStyle=orthogonalEdgeStyle;rounded=0;orthogonalLoop=1;jettySize=auto;html=1;" edge="1" parent="WIyWlLk6GJQsqaUBKTNV-1" source="w1AFs5OzmK7hU-oQMfDA-14" target="w1AFs5OzmK7hU-oQMfDA-16">
          <mxGeometry relative="1" as="geometry" />
        </mxCell>
        <mxCell id="w1AFs5OzmK7hU-oQMfDA-14" value="Mean of the rest of the elements from the array is calculated" style="whiteSpace=wrap;html=1;" vertex="1" parent="WIyWlLk6GJQsqaUBKTNV-1">
          <mxGeometry x="84.94" y="510" width="190" height="60" as="geometry" />
        </mxCell>
        <mxCell id="w1AFs5OzmK7hU-oQMfDA-18" style="edgeStyle=orthogonalEdgeStyle;rounded=0;orthogonalLoop=1;jettySize=auto;html=1;entryX=0;entryY=0.5;entryDx=0;entryDy=0;" edge="1" parent="WIyWlLk6GJQsqaUBKTNV-1" source="w1AFs5OzmK7hU-oQMfDA-16" target="w1AFs5OzmK7hU-oQMfDA-6">
          <mxGeometry relative="1" as="geometry">
            <Array as="points">
              <mxPoint x="39.94" y="620" />
              <mxPoint x="39.94" y="250" />
            </Array>
          </mxGeometry>
        </mxCell>
        <mxCell id="w1AFs5OzmK7hU-oQMfDA-16" value="Denoised image" style="whiteSpace=wrap;html=1;" vertex="1" parent="WIyWlLk6GJQsqaUBKTNV-1">
          <mxGeometry x="119.94" y="600" width="120" height="40" as="geometry" />
        </mxCell>
      </root>
    </mxGraphModel>
  </diagram>
</mxfile>
